{"glyphs":{":":{"x_min":0,"x_max":229,"ha":229,"o":"m 124 399 q 154 399 174 378 q 195 357 195 328 q 195 298 174 277 q 154 256 124 256 q 94 256 74 277 q 53 298 53 328 q 53 357 74 378 q 94 399 124 399 z m 124 131 q 154 131 175 110 q 196 89 196 60 q 196 30 175 9 q 154 -12 124 -12 q 95 -12 74 9 q 53 30 53 60 q 53 89 74 110 q 95 131 124 131 z"},"$":{"x_min":0,"x_max":438,"ha":438,"o":"m 367 457 q 291 511 243 511 q 217 511 202 497 q 186 483 186 460 q 186 433 206 406 q 227 380 275 340 q 321 302 344 272 q 368 243 379 216 q 390 189 390 150 q 390 23 257 -7 l 257 -105 l 191 -105 l 191 -8 q 131 -6 60 42 l 60 171 q 92 134 123 117 q 154 100 196 100 q 229 100 248 115 q 267 129 267 154 q 267 169 252 190 q 238 212 170 272 q 102 333 82 381 q 61 430 61 472 q 61 523 98 563 q 135 604 191 609 l 191 652 l 259 652 l 259 609 q 312 605 367 579 z"},"?":{"x_min":0,"x_max":417,"ha":417,"o":"m 51 468 q 51 542 90 582 q 130 623 221 623 q 307 623 346 582 q 384 541 384 449 q 384 363 359 320 q 334 276 267 263 l 267 180 l 147 180 l 147 336 l 173 336 q 225 336 243 357 q 260 379 260 439 q 260 485 251 505 q 242 525 218 525 q 179 525 177 468 z m 207 132 q 235 132 256 111 q 277 90 277 61 q 277 31 257 10 q 236 -11 207 -11 q 177 -11 156 10 q 134 31 134 61 q 134 90 156 111 q 177 132 207 132 z"},"<":{"x_min":0,"x_max":667,"ha":667,"o":"m 600 67 l 66 291 l 66 361 l 600 585 l 600 502 l 170 326 l 600 150 z"},"'":{"x_min":0,"x_max":191,"ha":191,"o":"m 146 596 l 122 462 l 68 462 l 45 596 l 45 716 l 146 716 z"},"=":{"x_min":0,"x_max":667,"ha":667,"o":"m 601 404 l 66 404 l 66 481 l 601 481 z m 601 173 l 66 173 l 66 250 l 601 250 z"},"a":{"x_min":0,"x_max":427,"ha":427,"o":"m 383 0 l 264 0 l 264 71 l 262 71 q 233 -12 164 -12 q 115 -12 79 35 q 42 83 42 205 q 42 431 167 431 q 235 431 261 344 l 263 344 l 263 419 l 383 419 z m 208 326 q 165 326 165 219 q 165 155 177 126 q 188 97 216 97 q 242 97 253 124 q 264 150 264 208 q 264 270 251 298 q 239 326 210 326 z"},"L":{"x_min":0,"x_max":365,"ha":365,"o":"m 350 0 l 65 0 l 65 610 l 196 610 l 196 120 l 350 120 z"},"3":{"x_min":0,"x_max":438,"ha":438,"o":"m 329 323 q 368 302 385 270 q 403 237 403 177 q 403 -12 220 -12 q 147 -12 98 29 q 49 69 49 175 l 175 175 q 175 133 186 114 q 196 94 227 94 q 278 94 278 171 q 278 266 207 266 l 182 266 l 182 370 q 248 371 264 393 q 281 415 281 452 q 281 526 228 526 q 205 526 196 506 q 187 487 186 445 l 73 445 q 73 540 116 582 q 159 624 236 624 q 310 624 353 582 q 395 540 395 466 q 395 414 380 383 q 364 353 329 323 z"},";":{"x_min":0,"x_max":229,"ha":229,"o":"m 145 399 q 174 399 195 378 q 216 357 216 328 q 216 298 195 277 q 174 256 145 256 q 115 256 94 277 q 73 298 73 328 q 73 357 94 378 q 115 399 145 399 z m 204 130 l 102 -128 l 27 -128 l 88 130 z"},"J":{"x_min":0,"x_max":354,"ha":354,"o":"m 306 182 q 306 80 266 34 q 227 -12 138 -12 q 107 -12 86 -6 q 66 0 27 21 l 27 156 q 31 154 42 146 q 87 113 121 113 q 174 113 174 191 l 174 610 l 306 610 z"},"V":{"x_min":0,"x_max":510,"ha":510,"o":"m 366 610 l 499 610 l 327 0 l 201 0 l 27 610 l 166 610 l 264 218 z"},"\"":{"x_min":0,"x_max":355,"ha":355,"o":"m 309 599 l 285 462 l 232 462 l 209 599 l 209 716 l 309 716 z m 147 599 l 124 462 l 71 462 l 46 599 l 46 716 l 147 716 z"},"7":{"x_min":0,"x_max":438,"ha":438,"o":"m 415 572 l 201 0 l 73 0 l 260 498 l 67 498 l 67 610 l 415 610 z"},"S":{"x_min":0,"x_max":385,"ha":385,"o":"m 332 438 q 280 499 232 499 q 210 499 194 485 q 177 471 177 453 q 177 421 230 378 q 286 333 309 308 q 333 282 347 248 q 361 213 361 172 q 361 91 309 40 q 258 -12 177 -12 q 110 -12 47 35 l 47 179 q 108 113 169 113 q 196 113 215 128 q 233 143 233 165 q 233 198 186 238 q 111 302 88 334 q 65 365 53 397 q 42 429 42 462 q 42 532 91 578 q 141 624 217 624 q 274 624 332 591 z"},"}":{"x_min":0,"x_max":334,"ha":334,"o":"m 306 219 q 273 219 248 201 q 222 183 213 148 q 205 113 205 5 q 204 -103 191 -132 q 179 -160 154 -185 q 128 -210 50 -210 l 23 -210 l 23 -134 l 38 -134 q 91 -134 107 -115 q 122 -96 122 -33 l 122 38 q 122 141 146 189 q 169 237 224 259 q 160 288 141 338 q 122 388 122 479 l 122 551 q 122 614 107 633 q 91 652 38 652 l 23 652 l 23 728 l 50 728 q 129 728 155 702 q 181 676 192 648 q 204 621 205 521 q 205 420 210 386 q 215 352 229 334 q 242 316 261 307 q 280 299 306 299 z"},"Z":{"x_min":0,"x_max":448,"ha":448,"o":"m 436 610 l 213 119 l 387 119 l 387 0 l 29 0 l 29 19 l 243 490 l 48 490 l 48 610 z"},"x":{"x_min":0,"x_max":417,"ha":417,"o":"m 403 0 l 277 0 l 219 107 l 159 0 l 29 0 l 153 208 l 44 419 l 165 419 l 221 315 l 273 419 l 395 419 l 284 209 z"},")":{"x_min":0,"x_max":240,"ha":240,"o":"m 117 648 q 159 572 188 452 q 216 332 216 239 q 216 133 186 15 q 156 -103 115 -183 l 32 -140 q 76 -61 98 40 q 120 141 120 232 q 120 319 97 427 q 73 534 33 603 z"},"&":{"x_min":0,"x_max":552,"ha":552,"o":"m 537 183 q 527 170 459 102 l 527 0 l 389 0 l 367 33 q 295 -12 223 -12 q 150 -12 99 38 q 49 87 49 160 q 49 244 165 327 q 108 417 108 470 q 108 526 150 563 q 193 601 257 601 q 324 601 367 564 q 409 527 409 469 q 409 385 320 305 l 397 192 q 438 231 464 263 z m 254 388 q 302 416 302 460 q 302 483 290 498 q 278 513 260 513 q 241 513 229 500 q 216 487 216 468 q 216 446 254 388 z m 306 121 l 222 244 q 172 208 172 168 q 172 143 195 120 q 217 96 245 96 q 271 96 306 121 z"},"_":{"x_min":0,"x_max":500,"ha":500,"o":"m 507 -124 l -7 -124 l -7 -74 l 507 -74 z"},"v":{"x_min":0,"x_max":396,"ha":396,"o":"m 29 419 l 145 419 l 203 143 l 264 419 l 381 419 l 254 0 l 142 0 z"},"O":{"x_min":0,"x_max":521,"ha":521,"o":"m 50 308 q 50 437 78 497 q 105 557 152 590 q 198 623 268 623 q 326 623 362 604 q 397 584 428 548 q 458 511 473 456 q 487 402 487 312 q 487 128 426 58 q 364 -12 267 -12 q 168 -12 109 60 q 50 133 50 308 z m 189 345 l 189 306 q 189 210 195 179 q 202 149 222 131 q 243 114 272 114 q 295 114 315 131 q 334 148 342 183 q 350 218 350 307 q 350 387 344 421 q 337 455 317 476 q 297 497 268 497 q 226 497 208 461 q 189 424 189 345 z"},"(":{"x_min":0,"x_max":240,"ha":240,"o":"m 219 -141 l 136 -184 q 88 -89 62 31 q 37 150 37 225 q 37 319 62 434 q 86 549 138 647 l 219 603 q 175 519 154 418 q 133 318 133 232 q 133 164 149 71 q 165 -22 196 -94 z"},"C":{"x_min":0,"x_max":438,"ha":438,"o":"m 417 10 q 367 -12 305 -12 q 195 -12 121 68 q 47 149 47 303 q 47 462 120 543 q 193 623 291 623 q 350 623 416 593 l 416 465 q 364 491 349 495 q 333 498 316 498 q 264 498 225 455 q 186 412 186 307 q 186 197 224 155 q 262 113 318 113 q 364 113 417 149 z"},"W":{"x_min":0,"x_max":656,"ha":656,"o":"m 645 610 l 522 0 l 415 0 l 339 425 l 337 425 l 261 0 l 146 0 l 26 610 l 160 610 l 184 488 l 212 218 l 214 218 l 284 610 l 393 610 l 465 201 l 467 201 l 493 467 q 500 532 519 610 z"},"A":{"x_min":0,"x_max":500,"ha":500,"o":"m 488 0 l 359 0 l 339 95 l 178 95 l 156 0 l 27 0 l 201 610 l 335 610 z m 320 194 l 266 460 l 264 460 l 202 194 z"},"f":{"x_min":0,"x_max":302,"ha":302,"o":"m 291 324 l 212 324 l 212 0 l 92 0 l 92 324 l 27 324 l 27 419 l 92 419 l 92 512 q 92 653 212 653 q 247 653 291 642 l 291 546 q 268 553 253 553 q 212 553 212 507 l 212 419 l 291 419 z"},"Q":{"x_min":0,"x_max":521,"ha":521,"o":"m 490 -12 l 423 -60 l 370 14 q 322 -12 266 -12 q 190 -12 142 26 q 93 64 70 129 q 47 194 47 301 q 47 473 107 547 q 167 622 264 622 q 339 622 388 585 q 437 547 460 483 q 484 418 484 309 q 484 142 431 73 z m 346 173 q 348 244 348 278 q 348 377 342 415 q 336 453 316 475 q 296 497 264 497 q 231 497 208 463 q 185 429 185 316 q 185 221 192 187 q 199 153 218 133 q 237 114 265 114 q 280 114 296 120 l 222 228 l 290 275 l 344 173 z"},"w":{"x_min":0,"x_max":604,"ha":604,"o":"m 588 418 l 476 0 l 368 0 l 309 276 l 307 276 l 247 0 l 140 0 l 28 418 l 142 418 l 196 141 l 257 418 l 362 418 l 420 138 l 479 418 z"},"-":{"x_min":0,"x_max":229,"ha":229,"o":"m 213 162 l 34 162 l 34 260 l 213 260 z"},"E":{"x_min":0,"x_max":396,"ha":396,"o":"m 368 0 l 64 0 l 64 610 l 349 610 l 349 492 l 195 492 l 195 368 l 327 368 l 327 255 l 195 255 l 195 120 l 368 120 z"},"s":{"x_min":0,"x_max":344,"ha":344,"o":"m 269 303 q 220 342 190 342 q 156 342 156 315 q 156 297 212 268 q 268 238 294 203 q 320 167 320 117 q 320 61 281 24 q 242 -12 181 -12 q 138 -12 106 -1 q 75 11 38 36 l 89 123 q 93 121 100 115 q 145 80 171 80 q 187 80 197 89 q 207 98 207 112 q 207 124 191 138 q 176 152 130 180 q 84 208 63 235 q 43 262 43 300 q 43 357 82 394 q 121 431 182 431 q 250 431 315 385 z"},">":{"x_min":0,"x_max":667,"ha":667,"o":"m 600 291 l 66 67 l 66 150 l 497 325 l 66 501 l 66 585 l 600 360 z"},"l":{"x_min":0,"x_max":229,"ha":229,"o":"m 182 0 l 62 0 l 62 652 l 182 652 z"},"8":{"x_min":0,"x_max":438,"ha":438,"o":"m 313 328 q 363 315 385 270 q 407 226 407 168 q 407 89 366 38 q 325 -12 224 -12 q 125 -12 86 41 q 47 95 47 171 q 47 300 141 328 q 64 365 64 465 q 64 538 107 580 q 151 621 227 621 q 304 621 347 579 q 390 538 390 463 q 390 358 313 330 z m 231 374 q 278 374 278 449 q 278 484 265 503 q 251 523 228 523 q 178 523 178 451 q 178 374 231 374 z m 227 90 q 282 90 282 179 q 282 226 270 247 q 257 268 229 268 q 172 268 172 181 q 172 90 227 90 z"},"\\":{"x_min":0,"x_max":313,"ha":313,"o":"m 276 -184 l 205 -184 l 20 647 l 91 647 z"},"e":{"x_min":0,"x_max":406,"ha":406,"o":"m 380 184 l 169 184 q 172 116 184 95 q 196 74 226 74 q 265 74 268 124 l 373 124 q 367 58 326 23 q 286 -12 219 -12 q 134 -12 89 45 q 45 103 45 213 q 45 311 94 371 q 144 431 223 431 q 280 431 318 398 q 355 365 368 316 q 380 267 380 184 z m 268 253 q 268 306 257 332 q 247 357 222 357 q 193 357 181 332 q 169 307 169 253 z"},"b":{"x_min":0,"x_max":438,"ha":438,"o":"m 182 345 q 199 390 220 410 q 241 431 279 431 q 401 431 401 199 q 401 79 364 35 q 327 -9 281 -9 q 217 -9 182 68 l 180 68 l 180 0 l 61 0 l 61 652 l 180 652 l 180 345 z m 231 99 q 279 99 279 214 q 279 326 231 326 q 179 326 179 202 q 179 99 231 99 z"},"%":{"x_min":0,"x_max":688,"ha":688,"o":"m 174 624 q 299 624 299 464 q 299 388 265 346 q 231 304 171 304 q 44 304 44 463 q 44 624 174 624 z m 172 540 q 139 540 139 463 q 139 389 172 389 q 204 389 204 463 q 204 540 173 540 z m 542 623 l 234 -17 l 158 -17 l 468 623 z m 529 303 q 658 303 658 138 q 658 63 625 23 q 593 -18 534 -18 q 405 -18 405 145 q 405 222 437 262 q 469 303 529 303 z m 534 65 q 564 65 564 136 q 564 219 533 219 q 500 219 500 143 q 500 65 534 65 z"},"m":{"x_min":0,"x_max":656,"ha":656,"o":"m 616 0 l 497 0 l 497 228 q 497 310 447 310 q 424 310 410 289 q 397 268 397 232 l 397 0 l 278 0 l 278 236 q 278 271 264 291 q 251 310 227 310 q 207 310 193 289 q 179 267 179 234 l 179 0 l 60 0 l 60 419 l 179 419 l 179 340 l 181 340 q 229 431 296 431 q 335 431 362 403 q 388 374 391 325 l 393 325 q 412 374 447 403 q 483 431 522 431 q 563 431 590 393 q 616 354 616 294 z"},"#":{"x_min":0,"x_max":668,"ha":668,"o":"m 626 171 l 471 171 l 430 -22 l 359 -22 l 401 171 l 204 171 l 164 -22 l 94 -22 l 134 171 l 42 171 l 42 241 l 149 241 l 184 412 l 42 412 l 42 482 l 198 482 l 240 676 l 310 676 l 268 482 l 464 482 l 505 676 l 575 676 l 533 482 l 626 482 l 626 412 l 520 412 l 484 241 l 626 241 z m 450 412 l 254 412 l 219 242 l 415 242 z"},",":{"x_min":0,"x_max":229,"ha":229,"o":"m 212 133 l 112 -127 l 36 -127 l 97 133 z"},"n":{"x_min":0,"x_max":438,"ha":438,"o":"m 180 419 l 180 342 l 182 342 q 209 388 237 410 q 264 431 300 431 q 344 431 371 393 q 398 354 398 291 l 398 0 l 280 0 l 280 242 q 280 273 267 291 q 253 309 230 309 q 180 309 180 232 l 180 0 l 61 0 l 61 419 z"},"h":{"x_min":0,"x_max":438,"ha":438,"o":"m 400 0 l 281 0 l 281 232 q 281 310 231 310 q 208 310 195 291 q 182 271 182 237 l 182 0 l 63 0 l 63 652 l 182 652 l 182 342 l 184 342 q 236 432 301 432 q 348 432 374 390 q 400 348 400 271 z"},"z":{"x_min":0,"x_max":344,"ha":344,"o":"m 329 401 l 190 104 l 320 104 l 320 0 l 29 0 l 29 22 l 167 315 l 40 315 l 40 419 l 329 419 z"},"B":{"x_min":0,"x_max":479,"ha":479,"o":"m 353 307 q 406 283 428 247 q 449 211 449 154 q 449 89 403 44 q 356 0 288 0 l 70 0 l 70 610 l 257 610 q 336 610 386 566 q 437 522 437 455 q 437 400 417 366 q 397 332 353 307 z m 202 352 l 229 352 q 262 352 282 373 q 302 395 302 430 q 302 512 219 512 l 202 512 z m 202 99 l 240 100 q 274 101 292 121 q 311 142 311 179 q 311 260 229 260 l 202 260 z"},"K":{"x_min":0,"x_max":479,"ha":479,"o":"m 463 0 l 323 0 l 201 308 l 199 308 l 199 0 l 66 0 l 66 610 l 199 610 l 199 331 l 201 331 l 318 610 l 453 610 l 324 319 z"},"R":{"x_min":0,"x_max":469,"ha":469,"o":"m 444 0 l 309 0 l 203 302 l 201 302 l 201 0 l 70 0 l 70 610 l 241 610 q 292 610 344 589 q 395 569 416 525 q 438 482 438 435 q 438 378 414 342 q 389 306 336 276 z m 201 336 q 266 336 283 361 q 300 386 300 425 q 300 512 228 512 l 201 512 z"},"T":{"x_min":0,"x_max":417,"ha":417,"o":"m 402 491 l 283 491 l 283 0 l 152 0 l 152 490 l 31 490 l 31 610 l 402 610 z"},"P":{"x_min":0,"x_max":448,"ha":448,"o":"m 65 610 l 236 610 q 435 610 435 419 q 435 333 383 287 q 332 240 237 240 l 198 240 l 198 0 l 65 0 z m 197 336 l 223 336 q 258 336 278 358 q 297 381 297 422 q 297 512 227 512 l 197 512 z"},"|":{"x_min":0,"x_max":546,"ha":546,"o":"m 312 -135 l 234 -135 l 234 696 l 312 696 z"},"t":{"x_min":0,"x_max":313,"ha":313,"o":"m 298 324 l 224 324 l 224 0 l 104 0 l 104 323 l 29 323 l 29 419 l 104 419 l 104 538 l 224 538 l 224 419 l 298 419 z"},"M":{"x_min":0,"x_max":646,"ha":646,"o":"m 626 0 l 501 0 l 471 499 l 469 499 l 376 0 l 282 0 l 194 502 l 192 502 l 158 0 l 32 0 l 95 610 l 261 610 l 328 208 l 330 208 l 404 610 l 567 610 z"},"g":{"x_min":0,"x_max":427,"ha":427,"o":"m 382 39 q 382 -77 339 -131 q 296 -185 203 -185 q 49 -185 44 -41 l 150 -41 q 154 -89 201 -89 q 264 -89 264 9 l 264 87 l 262 87 q 227 0 167 0 q 114 0 77 48 q 41 96 41 204 q 41 326 77 378 q 112 431 166 431 q 232 431 261 341 l 263 341 l 263 419 l 382 419 z m 216 107 q 238 107 251 134 q 263 161 263 210 q 263 325 214 325 q 164 325 164 218 q 164 107 216 107 z"},"j":{"x_min":0,"x_max":229,"ha":229,"o":"m 51 558 q 51 587 72 608 q 93 629 122 629 q 152 629 173 608 q 194 588 194 558 q 194 528 173 508 q 152 487 122 487 q 93 487 72 508 q 51 528 51 558 z m 62 419 l 183 419 l 183 -185 l 62 -185 z"},"i":{"x_min":0,"x_max":229,"ha":229,"o":"m 50 558 q 50 587 71 608 q 92 629 121 629 q 150 629 171 608 q 192 587 192 558 q 192 529 171 508 q 150 487 121 487 q 92 487 71 508 q 50 529 50 558 z m 63 419 l 182 419 l 182 0 l 63 0 z"},"y":{"x_min":0,"x_max":396,"ha":396,"o":"m 381 419 l 201 -185 l 83 -185 l 140 6 l 29 419 l 146 419 l 201 142 l 203 142 l 261 419 z"},"@":{"x_min":0,"x_max":975,"ha":975,"o":"m 970 9 q 917 -98 806 -154 q 695 -210 541 -210 l 538 -210 q 299 -210 163 -91 q 28 27 28 235 q 28 376 96 497 q 165 617 278 672 q 392 728 528 728 q 714 728 829 624 q 944 519 944 352 q 944 208 848 104 q 753 0 622 0 q 544 0 532 56 q 475 0 400 0 q 316 0 264 58 q 212 115 212 209 q 212 324 285 427 q 358 529 476 529 q 562 529 605 463 l 617 517 l 745 517 l 672 167 q 665 134 665 123 q 665 100 684 100 q 709 100 752 134 q 795 168 826 228 q 856 289 856 357 q 856 483 765 561 q 675 639 526 639 q 396 639 302 584 q 208 530 163 430 q 117 331 117 229 q 117 67 228 -27 q 338 -121 530 -121 q 764 -121 866 9 z m 338 203 q 338 151 362 120 q 386 89 425 89 q 495 89 536 167 q 578 246 578 327 q 578 379 553 410 q 528 441 487 441 q 425 441 382 375 q 338 310 338 210 z"},".":{"x_min":0,"x_max":229,"ha":229,"o":"m 123 132 q 152 132 174 111 q 195 90 195 60 q 195 30 174 9 q 152 -12 123 -12 q 93 -12 72 9 q 51 30 51 60 q 51 90 72 111 q 93 132 123 132 z"},"p":{"x_min":0,"x_max":427,"ha":427,"o":"m 182 353 q 217 431 277 431 q 329 431 364 383 q 400 335 400 213 q 400 82 363 35 q 326 -12 275 -12 q 214 -12 181 68 l 182 71 l 180 71 l 180 -185 l 59 -185 l 59 419 l 180 419 l 180 353 z m 232 95 q 258 95 268 123 q 278 150 278 215 q 278 322 231 322 q 204 322 192 295 q 180 268 180 208 q 180 95 232 95 z"},"X":{"x_min":0,"x_max":469,"ha":469,"o":"m 459 0 l 319 0 l 246 181 l 167 0 l 27 0 l 167 302 l 29 610 l 166 610 l 246 412 l 313 610 l 447 610 l 327 301 z"},"*":{"x_min":0,"x_max":336,"ha":336,"o":"m 188 493 q 206 501 225 527 q 244 553 254 560 q 265 567 279 567 q 292 567 302 555 q 313 544 313 530 q 313 514 301 503 q 290 492 271 491 q 214 488 200 475 q 226 463 255 460 q 312 454 312 421 q 312 405 302 394 q 292 383 277 383 q 252 383 230 417 q 207 451 193 460 q 192 457 192 454 q 192 436 206 406 q 220 375 220 363 q 220 351 211 340 q 201 329 182 329 q 147 329 147 367 q 147 381 159 406 q 170 430 172 460 q 155 452 134 421 q 108 382 87 382 q 71 382 60 393 q 48 404 48 420 q 48 461 117 461 l 126 461 q 142 461 160 473 q 157 478 149 481 q 142 484 131 485 l 108 488 q 48 493 48 528 q 48 543 59 554 q 70 566 85 566 q 108 566 130 534 q 153 501 168 493 l 169 502 q 169 517 156 543 q 143 570 143 583 q 143 600 153 611 q 163 621 179 621 q 196 621 207 611 q 217 602 217 586 q 217 574 202 542 q 188 510 188 493 z"},"Y":{"x_min":0,"x_max":469,"ha":469,"o":"m 454 610 l 318 270 l 318 0 l 187 0 l 187 269 l 29 610 l 171 610 l 249 417 l 323 610 z"},"c":{"x_min":0,"x_max":302,"ha":302,"o":"m 281 312 q 253 332 229 332 q 167 332 167 210 q 167 86 228 86 q 251 86 280 104 l 280 4 q 231 -14 197 -14 q 126 -14 86 42 q 45 97 45 195 q 45 328 88 379 q 132 429 200 429 q 245 429 281 410 z"},"!":{"x_min":0,"x_max":229,"ha":229,"o":"m 183 180 l 64 180 l 64 611 l 183 611 z m 123 132 q 153 132 174 111 q 195 90 195 60 q 195 30 174 9 q 153 -12 123 -12 q 93 -12 72 9 q 51 30 51 60 q 51 90 72 111 q 93 132 123 132 z"},"/":{"x_min":0,"x_max":313,"ha":313,"o":"m 293 647 l 108 -184 l 37 -184 l 222 647 z"},"[":{"x_min":0,"x_max":240,"ha":240,"o":"m 225 -159 l 46 -159 l 46 634 l 225 634 l 225 553 l 134 553 l 134 -78 l 225 -78 z"},"6":{"x_min":0,"x_max":438,"ha":438,"o":"m 218 377 q 240 385 260 385 q 407 385 407 195 q 407 100 358 44 q 309 -12 226 -12 q 141 -12 94 52 q 47 116 47 197 q 47 344 200 611 l 335 611 q 249 459 218 377 z m 227 94 q 257 94 269 118 q 281 143 281 199 q 281 249 269 272 q 256 295 229 295 q 175 295 175 189 q 175 94 227 94 z"},"r":{"x_min":0,"x_max":313,"ha":313,"o":"m 303 311 q 273 317 261 317 q 177 317 177 228 l 177 0 l 57 0 l 57 419 l 169 419 l 169 320 l 171 320 q 199 430 303 432 z"},"2":{"x_min":0,"x_max":438,"ha":438,"o":"m 52 387 l 54 436 q 57 505 76 543 q 95 581 139 602 q 183 623 234 623 q 313 623 361 578 q 408 534 408 459 q 408 416 389 368 q 369 321 323 251 l 236 119 l 387 119 l 387 0 l 46 0 l 46 40 l 252 356 q 260 368 270 398 q 281 429 281 448 q 281 478 266 495 q 251 513 226 513 q 197 513 181 488 q 165 462 165 416 l 165 387 z"},"{":{"x_min":0,"x_max":334,"ha":334,"o":"m 311 -210 l 284 -210 q 205 -210 179 -184 q 153 -158 142 -131 q 130 -104 129 5 q 129 114 120 149 q 112 184 86 201 q 60 219 28 219 l 28 299 q 54 299 73 308 q 92 317 105 335 q 119 353 124 387 q 129 421 129 522 q 130 623 142 650 q 154 677 180 702 q 206 728 284 728 l 311 728 l 311 652 l 296 652 q 243 652 227 633 q 212 614 212 551 l 212 479 q 212 378 190 331 q 168 283 110 259 q 165 237 188 189 q 212 141 212 38 l 212 -33 q 212 -95 227 -115 q 242 -134 296 -134 l 311 -134 z"},"9":{"x_min":0,"x_max":438,"ha":438,"o":"m 236 233 q 207 226 190 226 q 122 226 84 276 q 47 325 47 416 q 47 512 97 567 q 147 623 233 623 q 310 623 358 564 q 406 505 406 409 q 406 340 366 231 q 326 122 253 0 l 117 0 q 195 127 236 233 z m 229 317 q 281 317 281 421 q 281 518 229 518 q 197 518 185 494 q 173 470 173 413 q 173 363 186 340 q 200 317 229 317 z"}," ":{"x_min":0,"x_max":219,"ha":219,"o":""},"I":{"x_min":0,"x_max":271,"ha":271,"o":"m 76 610 l 208 610 l 208 0 l 76 0 z"},"H":{"x_min":0,"x_max":500,"ha":500,"o":"m 63 610 l 195 610 l 195 377 l 318 377 l 318 610 l 450 610 l 450 0 l 318 0 l 318 258 l 196 258 l 196 0 l 63 0 z"},"4":{"x_min":0,"x_max":438,"ha":438,"o":"m 410 145 l 355 145 l 355 0 l 245 0 l 245 145 l 40 145 l 40 214 l 219 610 l 355 610 l 355 234 l 410 234 z m 245 234 l 245 481 l 243 481 l 133 234 z"},"~":{"x_min":0,"x_max":656,"ha":656,"o":"m 594 338 q 519 274 451 274 q 419 274 390 284 q 360 295 300 324 q 240 353 206 353 q 141 353 62 284 l 62 366 q 138 429 210 429 q 240 429 270 419 q 300 408 359 380 q 417 351 452 351 q 516 351 594 421 z"},"D":{"x_min":0,"x_max":510,"ha":510,"o":"m 66 610 l 212 610 q 334 610 406 532 q 478 454 478 307 q 478 159 408 80 q 337 0 207 0 l 66 0 z m 199 500 l 199 111 l 215 111 q 254 111 297 143 q 340 175 340 297 q 340 387 324 425 q 308 463 277 481 q 247 500 214 500 z"},"^":{"x_min":0,"x_max":469,"ha":469,"o":"m 443 337 l 354 337 l 234 629 l 116 337 l 26 337 l 199 728 l 270 728 z"},"0":{"x_min":0,"x_max":438,"ha":438,"o":"m 229 624 q 308 624 357 554 q 406 484 406 309 q 406 146 361 67 q 316 -12 224 -12 q 146 -12 96 59 q 46 129 46 302 q 46 485 97 555 q 148 624 227 624 z m 226 505 q 206 505 189 481 q 173 458 173 315 q 173 158 190 133 q 207 109 227 109 q 258 109 269 149 q 280 189 280 285 l 280 316 q 280 437 267 471 q 253 505 227 505 z"},"F":{"x_min":0,"x_max":375,"ha":375,"o":"m 350 491 l 196 491 l 196 366 l 328 366 l 328 253 l 196 253 l 196 0 l 65 0 l 65 610 l 350 610 z"},"`":{"x_min":0,"x_max":333,"ha":333,"o":"m 242 477 l 155 477 l 21 623 l 174 623 z"},"k":{"x_min":0,"x_max":438,"ha":438,"o":"m 423 0 l 297 0 l 201 214 l 199 214 l 199 0 l 80 0 l 80 652 l 199 652 l 199 242 l 201 242 l 288 419 l 410 419 l 309 234 z"},"u":{"x_min":0,"x_max":438,"ha":438,"o":"m 396 152 q 396 78 350 33 q 305 -12 230 -12 q 149 -12 104 33 q 58 78 58 159 l 58 419 l 178 419 l 178 153 q 178 86 230 86 q 277 86 277 149 l 277 419 l 396 419 z"},"]":{"x_min":0,"x_max":240,"ha":240,"o":"m 215 -159 l 38 -159 l 38 -78 l 127 -78 l 127 554 l 38 554 l 38 634 l 215 634 z"},"U":{"x_min":0,"x_max":500,"ha":500,"o":"m 453 172 q 453 86 402 37 q 350 -12 259 -12 q 164 -12 113 38 q 62 88 62 182 l 62 610 l 195 610 l 195 203 q 195 160 212 137 q 229 114 259 114 q 287 114 303 136 q 320 159 320 197 l 320 610 l 453 610 z"},"o":{"x_min":0,"x_max":417,"ha":417,"o":"m 43 205 q 43 314 88 373 q 133 431 216 431 q 300 431 344 374 q 388 317 388 208 q 388 102 344 45 q 301 -12 219 -12 q 133 -12 88 44 q 43 100 43 205 z m 266 207 q 266 276 257 304 q 248 332 217 332 q 188 332 177 306 q 165 279 165 220 q 165 146 175 116 q 185 86 216 86 q 246 86 256 113 q 266 140 266 207 z"},"N":{"x_min":0,"x_max":542,"ha":542,"o":"m 490 0 l 351 0 l 196 385 l 194 385 l 194 0 l 66 0 l 66 611 l 210 611 l 363 232 l 365 232 l 365 611 l 490 611 z"},"+":{"x_min":0,"x_max":667,"ha":667,"o":"m 601 287 l 371 287 l 371 59 l 294 59 l 294 287 l 66 287 l 66 364 l 294 364 l 294 593 l 371 593 l 371 364 l 601 364 z"},"G":{"x_min":0,"x_max":521,"ha":521,"o":"m 491 246 q 491 207 473 146 q 454 84 401 36 q 348 -12 276 -12 q 52 -12 52 310 q 52 462 110 543 q 168 624 276 624 q 431 624 463 472 l 347 422 q 344 504 273 504 q 242 504 223 485 q 204 465 198 431 q 192 397 192 314 q 192 216 198 180 q 205 144 224 125 q 244 107 275 107 q 348 107 353 228 l 272 228 l 272 346 l 491 346 z"},"q":{"x_min":0,"x_max":427,"ha":427,"o":"m 381 -185 l 263 -185 l 263 68 l 261 68 q 242 26 220 7 q 198 -12 165 -12 q 111 -12 76 39 q 41 89 41 202 q 41 340 80 386 q 118 431 163 431 q 226 431 261 354 l 263 354 l 263 419 l 381 419 z m 213 95 q 263 95 263 217 q 263 266 249 294 q 235 322 213 322 q 163 322 163 206 q 163 95 213 95 z"},"d":{"x_min":0,"x_max":427,"ha":427,"o":"m 382 0 l 263 0 l 263 69 l 261 69 q 229 -12 161 -12 q 114 -12 78 35 q 41 83 41 210 q 41 317 74 374 q 107 430 168 430 q 233 430 261 345 l 263 345 l 263 652 l 382 652 z m 211 325 q 164 325 164 208 q 164 95 214 95 q 240 95 252 122 q 263 148 263 207 q 263 325 212 325 z"},"1":{"x_min":0,"x_max":438,"ha":438,"o":"m 292 0 l 173 0 l 173 498 l 102 498 l 102 610 l 292 610 z"},"5":{"x_min":0,"x_max":438,"ha":438,"o":"m 193 396 q 290 390 337 337 q 384 284 384 200 q 384 103 328 45 q 272 -12 178 -12 q 112 -12 41 21 l 59 139 q 125 99 169 99 q 209 99 234 127 q 258 155 258 201 q 258 247 225 273 q 192 299 134 299 q 107 299 77 295 l 109 611 l 370 611 l 370 497 l 203 497 z"}}}
